<?xml version="1.0" standalone="no"?>
<!DOCTYPE svg PUBLIC "-//W3C//DTD SVG 20010904//EN"
 "http://www.w3.org/TR/2001/REC-SVG-20010904/DTD/svg10.dtd">
<svg version="1.0" xmlns="http://www.w3.org/2000/svg"
 width="580.000000pt" height="580.000000pt" viewBox="0 0 580.000000 580.000000"
 preserveAspectRatio="xMidYMid meet">

<g transform="translate(0.000000,580.000000) scale(0.100000,-0.100000)"
fill="#00000007" stroke="none">
<path d="M2640 5664 c-667 -62 -1248 -325 -1696 -769 -316 -313 -526 -650
-664 -1065 -99 -299 -142 -569 -143 -900 -1 -288 26 -486 103 -776 94 -354
286 -734 515 -1019 433 -541 1075 -910 1745 -1005 241 -33 530 -46 753 -32
407 26 622 72 942 200 55 22 145 52 200 66 133 36 199 68 330 161 209 150 364
329 489 566 104 197 158 359 215 644 56 281 65 375 66 684 l0 283 37 39 c47
49 93 143 118 243 27 108 28 329 1 488 -42 244 -108 390 -266 588 -28 36 -88
135 -132 220 -137 267 -252 427 -435 607 -209 206 -403 345 -668 478 -284 142
-560 230 -880 280 -102 16 -523 28 -630 19z m445 -294 c368 -35 619 -105 911
-254 257 -131 430 -253 604 -426 90 -90 290 -332 290 -351 0 -4 -37 1 -82 11
-133 30 -319 43 -545 37 -232 -5 -281 -13 -528 -83 -182 -52 -324 -117 -431
-196 -39 -29 -108 -80 -153 -113 -165 -119 -374 -362 -463 -538 -60 -121 -118
-286 -135 -385 -14 -90 -14 -107 0 -190 17 -106 58 -201 111 -260 73 -80 210
-152 350 -183 l59 -13 -6 -245 c-19 -712 -124 -1205 -354 -1665 l-54 -108 -57
7 c-203 24 -435 84 -640 166 -167 67 -258 115 -417 220 -483 321 -808 747
-988 1294 -117 356 -162 765 -122 1107 30 255 87 461 206 748 76 180 141 297
244 435 245 328 494 542 835 714 283 144 542 227 825 265 122 17 391 20 540 6z
m1250 -1299 c27 -27 56 -63 64 -80 9 -16 27 -38 41 -49 l26 -20 24 31 c14 18
37 44 51 58 14 15 33 39 42 53 17 25 22 26 105 26 120 0 211 -22 318 -75 110
-54 178 -118 248 -234 102 -170 153 -394 143 -636 -6 -154 -16 -193 -64 -246
-62 -68 -102 -84 -218 -84 -94 0 -104 2 -170 34 -57 28 -93 58 -195 162 -69
70 -135 132 -147 138 -12 6 -44 11 -72 11 -47 0 -54 -3 -122 -64 -71 -63 -255
-179 -395 -249 -189 -95 -535 -182 -724 -181 -165 0 -336 52 -407 123 -98 97
-77 327 49 549 206 362 548 617 968 721 101 25 277 54 371 60 9 1 38 -21 64
-48z m265 -1297 c36 -36 90 -81 120 -101 30 -20 56 -37 58 -38 6 -5 -29 -236
-44 -285 -38 -129 -104 -215 -214 -281 -145 -86 -356 -137 -515 -124 l-80 6
12 149 c7 82 16 210 20 285 l8 137 100 47 c129 59 301 156 390 219 39 28 72
51 75 51 3 1 35 -28 70 -65z m646 -306 c-17 -262 -61 -624 -96 -793 -53 -255
-195 -572 -301 -670 -25 -24 -31 -26 -25 -10 19 52 78 293 100 410 54 282 87
571 108 932 l12 222 101 4 c55 1 102 4 104 5 2 1 1 -44 -3 -100z m-1550 -80
c-3 -35 -13 -144 -22 -243 -17 -209 -65 -513 -101 -635 -31 -110 -121 -335
-188 -475 -81 -167 -213 -353 -288 -407 -29 -21 -30 -21 -22 -2 96 224 193
666 230 1054 9 91 19 292 22 447 l6 282 66 7 c36 4 107 12 156 19 50 7 103 13
119 14 l29 1 -7 -62z m1014 -567 c0 -48 -43 -376 -61 -464 -50 -247 -157 -492
-267 -609 -114 -122 -367 -231 -689 -298 -130 -27 -360 -60 -419 -60 -15 0 4
25 81 103 55 56 125 138 154 182 71 108 189 352 244 505 42 116 127 430 127
468 0 15 18 17 168 18 193 0 290 19 420 80 96 46 213 93 230 94 6 0 12 -9 12
-19z"/>
<path d="M3358 5313 c7 -3 16 -2 19 1 4 3 -2 6 -13 5 -11 0 -14 -3 -6 -6z"/>
<path d="M3408 5303 c7 -3 16 -2 19 1 4 3 -2 6 -13 5 -11 0 -14 -3 -6 -6z"/>
<path d="M3458 5293 c7 -3 16 -2 19 1 4 3 -2 6 -13 5 -11 0 -14 -3 -6 -6z"/>
<path d="M3498 5283 c7 -3 16 -2 19 1 4 3 -2 6 -13 5 -11 0 -14 -3 -6 -6z"/>
<path d="M3538 5273 c7 -3 16 -2 19 1 4 3 -2 6 -13 5 -11 0 -14 -3 -6 -6z"/>
<path d="M3705 5220 c27 -12 43 -12 25 0 -8 5 -22 9 -30 9 -10 0 -8 -3 5 -9z"/>
<path d="M2757 4760 c-88 -22 -167 -84 -210 -165 -18 -33 -22 -57 -22 -135 0
-81 4 -102 25 -143 28 -55 79 -106 142 -139 36 -19 58 -23 133 -23 78 0 97 4
141 27 106 56 167 156 167 275 0 163 -119 293 -284 307 -30 3 -71 1 -92 -4z"/>
</g>
</svg>
