<?xml version="1.0" standalone="no"?>
<!DOCTYPE svg PUBLIC "-//W3C//DTD SVG 20010904//EN"
 "http://www.w3.org/TR/2001/REC-SVG-20010904/DTD/svg10.dtd">
<svg version="1.0" xmlns="http://www.w3.org/2000/svg"
 width="1000.000000pt" height="380.000000pt" viewBox="0 0 1000.000000 380.000000"
 preserveAspectRatio="xMidYMid meet">

<g transform="translate(0.000000,380.000000) scale(0.100000,-0.100000)"
fill="#ffffff" stroke="none">
<path d="M1686 3649 c-623 -72 -1151 -484 -1369 -1069 -76 -203 -107 -393
-107 -648 0 -509 193 -965 554 -1309 255 -243 591 -408 966 -475 119 -21 481
-18 605 6 116 21 299 75 381 111 31 14 87 32 123 41 182 42 377 230 497 479
108 225 156 458 159 770 l1 200 41 62 c59 91 77 163 76 313 -1 181 -48 337
-132 432 -15 18 -60 94 -98 169 -267 522 -709 839 -1273 915 -112 15 -312 16
-424 3z m499 -204 c199 -44 408 -133 557 -237 113 -78 240 -190 301 -266 70
-87 117 -166 89 -149 -4 3 -93 13 -197 22 -309 28 -435 11 -630 -85 -184 -91
-386 -269 -475 -418 -91 -155 -130 -338 -95 -457 30 -106 88 -170 197 -220
l56 -26 8 -66 c8 -82 -2 -317 -22 -477 -35 -286 -132 -607 -212 -706 l-20 -25
-89 18 c-198 41 -415 134 -584 252 -121 84 -319 287 -401 410 -165 250 -255
506 -280 796 -38 463 121 909 436 1225 234 233 530 379 861 423 101 14 415 5
500 -14z m567 -796 c27 -7 43 -19 54 -42 42 -83 71 -87 136 -16 l47 51 73 -4
c98 -5 181 -43 247 -113 95 -100 134 -216 135 -395 1 -109 -1 -118 -29 -174
-37 -73 -74 -96 -155 -96 -79 1 -128 27 -230 125 -63 60 -96 85 -113 85 -15 0
-48 -19 -84 -48 -161 -134 -362 -224 -562 -253 -279 -40 -415 47 -382 244 47
284 347 558 691 631 80 18 124 19 172 5z m194 -820 c16 -17 48 -44 72 -60 47
-33 48 -39 35 -172 -6 -64 -8 -69 -55 -116 -94 -94 -241 -150 -392 -151 l-69
0 7 55 c3 30 9 109 13 175 4 78 10 120 17 120 20 0 229 107 281 144 28 19 53
35 56 35 3 1 18 -13 35 -30z m391 -323 c-10 -289 -40 -444 -122 -622 -33 -73
-113 -199 -121 -191 -2 2 7 51 20 108 63 270 93 481 103 731 l6 167 51 3 c28
2 55 1 60 -1 5 -2 6 -85 3 -195z m-942 17 c-31 -486 -142 -825 -334 -1022 -59
-61 -76 -65 -54 -14 28 67 72 231 98 366 40 209 55 348 62 555 l6 192 41 0
c23 1 70 7 106 14 36 8 69 14 74 15 5 0 5 -47 1 -106z m633 -305 c-27 -236
-76 -436 -135 -558 -79 -163 -221 -249 -510 -309 -95 -21 -253 -41 -253 -33 0
2 23 29 51 60 141 158 271 449 319 718 l12 69 107 0 c131 1 219 21 332 79 46
24 84 43 85 44 0 1 -3 -31 -8 -70z"/>
<path d="M1805 3046 c-128 -57 -142 -245 -25 -322 106 -70 256 -17 289 103 13
47 13 49 0 96 -13 47 -63 106 -106 123 -41 18 -119 17 -158 0z"/>
<path d="M5935 3169 c-77 -12 -117 -25 -189 -62 -120 -64 -227 -206 -261 -348
-32 -136 -10 -316 52 -432 61 -115 194 -216 330 -253 76 -20 241 -20 316 0
150 41 274 142 340 276 87 175 87 354 1 530 -102 207 -345 326 -589 289z m243
-244 c61 -33 91 -66 130 -139 25 -47 27 -60 27 -171 0 -111 -2 -124 -28 -177
-54 -111 -156 -171 -287 -170 -192 1 -324 162 -307 377 8 103 33 161 97 226
71 72 118 89 230 86 72 -3 93 -7 138 -32z"/>
<path d="M8030 3151 c-76 -24 -109 -43 -154 -88 -60 -59 -81 -113 -81 -213 0
-65 5 -94 20 -125 27 -55 88 -113 149 -141 45 -20 87 -33 295 -91 74 -20 121
-67 121 -120 0 -80 -55 -117 -175 -117 -119 0 -214 49 -245 125 -7 16 -15 29
-19 29 -5 0 -180 -80 -190 -87 -10 -7 40 -94 74 -132 44 -49 100 -82 185 -112
93 -32 266 -33 365 -2 176 55 265 176 253 342 -11 156 -105 235 -354 301 -144
38 -181 53 -216 87 -21 20 -28 36 -28 63 0 123 244 151 344 40 20 -22 36 -44
36 -50 0 -5 45 13 100 41 l100 50 -29 43 c-56 81 -125 129 -230 160 -76 22
-248 21 -321 -3z"/>
<path d="M9111 3140 c-13 -32 -272 -720 -345 -914 -31 -82 -56 -150 -56 -152
0 -2 54 -4 119 -4 l119 0 28 73 c14 39 33 87 40 105 l13 32 219 0 219 0 39
-105 38 -105 124 0 c114 0 124 1 117 18 -55 145 -310 796 -358 915 l-64 158
-121 2 c-121 2 -122 2 -131 -23z m208 -469 c39 -101 71 -185 71 -187 0 -2 -65
-4 -145 -4 -80 0 -145 2 -145 5 0 3 75 206 130 349 6 16 12 27 15 25 2 -2 35
-87 74 -188z"/>
<path d="M4110 2613 l0 -548 115 0 115 0 0 359 c0 198 3 356 8 352 4 -4 72
-118 152 -254 l146 -247 51 -3 51 -3 37 63 c201 347 261 447 266 448 3 0 5
-160 5 -355 l-1 -355 118 0 117 0 0 545 0 545 -129 0 -129 0 -153 -262 c-83
-145 -159 -275 -167 -290 l-16 -27 -21 37 c-12 20 -86 150 -165 289 l-142 251
-129 1 -129 2 0 -548z"/>
<path d="M6767 3153 c-4 -3 -7 -249 -7 -545 l0 -538 125 0 125 0 0 185 0 185
83 0 82 0 95 -172 c52 -94 100 -177 105 -185 8 -11 38 -13 142 -11 l132 3 -86
135 c-47 74 -103 163 -124 197 l-38 62 53 29 c62 35 110 87 139 151 17 37 21
66 22 151 0 95 -3 110 -28 162 -50 102 -156 168 -300 187 -85 12 -510 15 -520
4z m518 -221 c87 -30 120 -115 76 -200 -33 -64 -67 -76 -218 -80 l-133 -4 0
151 0 151 113 0 c78 -1 127 -6 162 -18z"/>
<path d="M6425 1703 c-62 -14 -146 -47 -185 -73 -204 -135 -294 -383 -230
-634 27 -105 63 -169 140 -247 112 -113 231 -155 416 -147 152 7 245 48 343
149 42 44 95 134 87 147 -3 5 -48 21 -102 37 -87 26 -97 27 -105 12 -23 -40
-66 -80 -113 -105 -44 -23 -63 -27 -141 -27 -75 0 -97 4 -133 23 -61 33 -118
95 -140 155 -60 159 -25 340 83 435 137 120 348 86 440 -72 9 -16 17 -15 103
13 52 17 100 31 108 31 21 0 17 19 -15 75 -59 103 -173 187 -298 219 -57 15
-209 20 -258 9z"/>
<path d="M4117 1693 c-4 -3 -7 -50 -7 -104 l0 -98 158 -3 157 -3 2 -435 2
-435 121 -3 120 -3 0 441 0 440 155 0 155 0 0 105 0 105 -428 0 c-236 0 -432
-3 -435 -7z"/>
<path d="M5140 1155 l0 -545 366 2 366 3 0 103 0 103 -251 -1 -251 -1 0 118 0
118 220 -3 220 -3 0 105 0 106 -220 0 -220 0 0 115 0 115 250 0 250 0 0 105 0
105 -365 0 -365 0 0 -545z"/>
<path d="M7170 1155 l0 -545 120 0 120 0 0 225 0 225 220 0 220 0 0 -225 0
-226 123 3 122 3 3 543 2 542 -122 0 -123 0 2 -215 2 -215 -225 0 -224 0 0
215 0 215 -120 0 -120 0 0 -545z"/>
</g>
</svg>
